<svg width="1366" height="1366" viewBox="0 0 1366 1366" fill="none" xmlns="http://www.w3.org/2000/svg">
<path d="M661.843 212.689C609.31 218.289 555.176 249.489 525.31 291.489C509.71 313.489 496.51 344.289 490.243 373.089C486.91 388.689 486.91 419.489 490.376 437.755C493.71 455.889 501.71 479.889 509.443 494.689C526.51 527.889 556.776 557.755 593.843 577.755C614.91 589.089 626.376 601.622 632.376 619.489C634.91 627.089 635.176 630.822 635.176 667.355C635.176 710.022 634.643 714.422 628.11 727.355C621.843 739.755 612.51 747.489 571.576 774.955C550.11 789.355 529.976 802.155 526.91 803.355C523.576 804.555 516.776 805.489 510.91 805.489C499.71 805.622 501.576 806.289 470.643 789.755C455.176 781.489 436.11 774.555 418.643 770.822C403.31 767.489 359.176 767.489 343.443 770.822C292.776 781.622 245.31 815.489 217.576 860.822C204.109 882.689 193.043 915.489 189.843 942.555C186.509 971.889 193.176 1009.49 207.843 1042.56C228.376 1089.36 272.376 1128.16 324.643 1145.62C355.576 1155.89 395.043 1156.69 430.91 1147.76C476.643 1136.16 523.176 1100.29 547.71 1057.76C570.643 1017.76 579.043 963.889 568.51 923.222C563.71 904.289 565.31 895.089 575.843 884.289C584.776 874.955 661.576 823.622 670.11 821.222C679.71 818.555 695.843 819.755 703.576 823.755C715.31 829.889 787.976 879.489 791.843 884.022C801.043 894.822 802.51 905.089 797.576 924.689C795.043 934.689 794.643 940.155 794.51 961.089C794.51 982.155 794.91 987.755 797.576 999.622C806.643 1039.89 824.91 1072.82 853.443 1099.76C882.243 1126.96 914.91 1143.62 954.51 1151.22C969.176 1154.16 1003.04 1154.42 1018.51 1151.89C1063.31 1144.56 1110.91 1115.36 1139.44 1077.89C1153.84 1058.82 1168.51 1024.69 1174.78 995.755C1178.11 979.889 1178.11 939.755 1174.78 924.155C1169.18 898.555 1157.58 871.622 1142.91 850.155C1132.78 835.222 1111.84 814.022 1096.91 803.355C1081.98 792.822 1061.31 782.155 1044.51 776.555C993.843 759.622 935.71 766.422 887.176 795.089C880.643 798.955 873.043 802.955 870.243 803.889C863.576 806.022 847.31 805.755 841.71 803.355C832.11 799.222 758.376 749.355 750.376 741.489C741.843 733.222 735.176 721.489 732.643 710.422C730.51 701.222 730.776 633.889 733.043 625.755C737.976 607.089 751.843 589.489 768.643 580.555C799.043 564.422 823.176 544.822 840.91 521.489C877.976 473.089 889.443 407.222 871.043 349.489C851.043 286.822 806.776 241.755 744.643 221.089C723.043 213.889 709.443 211.755 685.976 212.022C675.31 212.022 664.376 212.422 661.843 212.689Z" fill="white"/>
</svg>
