<svg width="1640" height="1492" viewBox="0 0 1640 1492" fill="none" xmlns="http://www.w3.org/2000/svg">
<path d="M808.452 1490.94C912.585 1491.14 987.517 1491.17 1037.93 1491.02C1086.79 1490.88 1112.59 1490.56 1119.65 1490.06L1120.27 1490.01H1120.28C1201.58 1483.09 1272.65 1440.51 1320.3 1370.22V1370.23C1322.02 1367.68 1340.65 1335.51 1367.77 1288.42C1394.87 1241.34 1430.44 1179.37 1466.03 1117.26C1537.22 993.019 1608.47 868.215 1612.27 860.682V860.681C1625.89 833.575 1634.74 801.042 1637.81 766.764L1637.95 765.13V765.129C1642.08 717.761 1631.16 665.325 1608.81 623.409C1602.68 612.018 1531.25 487.694 1460.43 364.821C1390.72 243.86 1321.62 124.36 1315.99 115.392L1315.77 115.048C1303.01 95.7124 1288 78.7496 1270.13 63.5537L1268.4 62.0889L1268.4 62.0879C1228.18 28.2894 1181.52 8.28956 1128.65 2.08691L1126.13 1.80273L1126.13 1.80176C1125.41 1.72183 1122.45 1.64152 1117.49 1.56445C1112.55 1.48766 1105.64 1.41451 1097.06 1.34473C1079.89 1.20515 1056 1.08001 1027.63 0.97168C970.883 0.755017 896.2 0.605728 821.45 0.539062C746.701 0.472398 671.885 0.488803 614.873 0.605469C586.367 0.663802 562.313 0.747012 544.943 0.857422C528.64 0.961054 518.261 1.08861 515.595 1.23926L515.165 1.26953L515.162 1.27051L514.138 1.36816C503.155 2.49801 479.932 7.09664 468.588 10.3193H468.589C410.092 27.0895 358.411 63.9045 325.246 112.695L324.466 113.851L324.187 114.279C317.288 125.055 246.166 247.59 175.167 370.522C104.168 493.453 33.3389 616.7 27.0186 628.896L26.7666 629.393L26.7656 629.395L25.9453 631.058C-8.21971 701.011 -7.95966 787.731 26.6016 857.945L27.4316 859.614V859.615C31.8902 868.532 103.776 993.776 175.851 1118.76C247.925 1243.74 320.143 1368.38 325.267 1376.1L325.268 1376.09C345.307 1406.22 375.282 1434.81 407.184 1453.84L408.704 1454.74L408.706 1454.74C429.592 1467.12 448.474 1475.12 471.655 1481.42L473.912 1482.02L473.914 1482.02C482.377 1484.3 487.132 1485.94 494.638 1487.16C502.142 1488.37 512.393 1489.16 531.781 1489.67C560.863 1490.45 610.446 1490.62 702.047 1490.77L808.452 1490.94ZM822.084 1457.74C749.584 1457.74 677.042 1457.62 621.308 1457.39C567.335 1457.16 529.085 1456.83 521.935 1456.38L521.34 1456.34C492.474 1453.75 467.866 1446.89 441.458 1434.2L438.896 1432.95L438.896 1432.95C416.314 1421.73 399.604 1409.7 381.301 1391.53C364.343 1374.83 356.405 1364.39 341.85 1339.85L340.42 1337.43C301.445 1271.29 68.3968 868.04 56.5332 846.274L56.1377 845.53C48.3661 830.117 41.7296 810.826 37.4365 791.299L37.0283 789.409C34.0188 775.365 33.4786 770.233 33.4229 749.528L33.418 745.172C33.2929 723.284 33.7546 716.376 35.9072 704.795L36.3604 702.41L36.3613 702.406C40.2433 683.126 45.7565 665.971 53.1445 649.851L53.8652 648.294V648.293C54.6595 646.603 59.7813 637.474 68.1279 622.809C76.4836 608.127 88.088 587.868 101.867 563.888C129.426 515.927 165.685 453.08 202.052 390.205C238.419 327.33 274.894 264.425 302.886 216.348C330.863 168.296 350.384 135.023 352.837 131.426V131.425C385.844 82.7824 439.827 47.3733 496.892 36.6816V36.6807C503.661 35.3968 510.846 34.2135 513.976 33.7578L515.056 33.6094L515.06 33.6084C515.235 33.5879 515.941 33.571 517.089 33.5537C518.259 33.5361 519.93 33.5182 522.074 33.5C526.363 33.4635 532.55 33.4262 540.426 33.3887C556.178 33.3137 578.691 33.2385 606.3 33.1719C654.615 33.0552 718.536 32.9643 789.142 32.9434L819.784 32.9385C950.583 32.8051 1026.19 32.8057 1070.54 33.0557C1113.48 33.2977 1127.16 33.7732 1133.29 34.5967L1133.86 34.6777C1197.86 44.2984 1253.99 79.8423 1289.13 132.896L1289.13 132.896C1293.95 140.128 1366.2 264.378 1438.17 388.671C1509.02 511.032 1579.65 633.51 1585.47 644.508L1585.7 644.946L1585.7 644.948C1599.6 672.752 1606.81 702.423 1607.88 736.621C1609.2 774.625 1603.01 806.949 1588.28 839.182L1587.57 840.716C1586.9 842.188 1582.05 850.907 1574.06 865.036C1566.06 879.197 1554.9 898.825 1541.61 922.13C1515.02 968.741 1479.9 1030.06 1444.48 1091.77C1375.87 1211.32 1306.12 1332.35 1295.09 1350.66L1294.21 1352.1L1294.21 1352.1L1293.34 1353.48C1256.62 1411.05 1193.88 1448.97 1123.51 1456.17L1121.83 1456.34H1121.83C1119.34 1456.57 1108.4 1456.78 1091.19 1456.95C1073.96 1457.13 1050.39 1457.27 1022.61 1457.39C967.044 1457.62 894.584 1457.74 822.084 1457.74Z" fill="black" stroke="black"/>
<path d="M333.5 130.5L388 76L496 19.5H1147L1234 55.5L1287.5 97.5L1612.5 672L1626.5 761.5L1612.5 831L1286 1388.5L1215 1446.5L1127 1473.5H498.5L425 1446.5L361.5 1404.5L24.5 828L13.5 746L24.5 671L89 548.5L333.5 130.5Z" fill="black"/>
<path d="M1269.49 971.207C1265.54 934.53 1249.08 900.648 1222.42 874.825C1178.63 832.226 1117.57 818.246 1059.3 837.489C1050.91 840.285 1043.83 842.259 1043.5 841.93C1039.55 836.667 916.265 629.922 917.088 629.922C919.063 629.922 941.119 607.225 947.868 598.343C961.529 580.086 973.216 552.455 976.837 529.428C979.471 512.323 977.825 475.974 973.71 462.158C954.452 397.519 904.908 354.591 838.574 345.216C801.869 340.118 757.592 351.302 725.824 373.999C713.644 382.552 695.045 401.96 686.815 414.46C654.882 462.816 650.932 523.836 676.28 574.823C684.346 591.271 700.805 612.981 712.327 622.356C716.442 625.646 719.899 629.1 719.899 629.922C719.899 631.567 596.944 836.996 594.146 840.121C592.5 841.766 589.866 841.272 580.813 838.147C535.713 822.358 486.004 827.456 445.349 851.634C409.302 873.18 382.637 909.694 372.596 950.812C347.412 1054.93 429.053 1153.12 536.042 1147.52C604.68 1143.91 660.808 1099.33 681.383 1031.9C685.662 1018.41 685.992 1015.12 685.992 988.477C685.992 961.832 685.662 958.543 681.547 945.22C672.494 915.779 657.022 890.45 636.283 871.371C630.686 866.272 626.078 861.503 626.078 861.009C626.078 860.187 750.02 652.455 752.16 649.988C752.325 649.659 759.073 651.633 767.139 654.429C785.409 660.679 798.742 662.817 819.646 662.817C838.739 662.817 858.82 659.528 873.963 653.771L884.333 649.824L948.197 756.074L1012.23 862.161L1001.69 872.358C965.151 907.227 947.209 955.089 952.147 1004.6C956.098 1042.59 972.064 1075.81 999.222 1102.13C1042.51 1144.23 1102.43 1158.38 1160.2 1140.29C1184.23 1132.72 1202.17 1121.7 1222.25 1102.29C1249.58 1075.81 1265.54 1042.75 1269.66 1003.28C1270.48 994.727 1271.14 986.997 1270.97 986.01C1270.97 985.188 1270.32 978.444 1269.49 971.207ZM1229.82 1013.15C1222.09 1055.42 1188.18 1092.1 1144.56 1105.58C1126.62 1111.01 1094.69 1111.01 1077.08 1105.58C1042.84 1094.73 1016.01 1071.7 1001.2 1040.12C992.968 1022.69 989.676 1007.89 989.676 988.477C989.676 963.313 996.424 940.451 1009.59 921.207C1017.82 908.871 1035.1 892.095 1043.5 887.983C1047.29 886.174 1051.24 883.707 1052.39 882.391C1053.38 881.24 1058.81 878.279 1064.57 875.976C1115.26 855.746 1171.23 870.22 1205.14 912.325C1228.67 941.437 1236.9 975.319 1229.82 1013.15ZM937.169 533.869C931.573 555.909 922.026 572.685 905.895 588.804C890.094 604.593 876.432 613.146 857.339 619.56C845.488 623.508 841.866 624.001 819.481 624.001C796.602 624.001 793.804 623.672 781.623 619.56C774.381 616.929 764.67 612.323 760.226 609.198C755.617 606.073 751.008 603.606 749.856 603.606C745.905 603.606 722.039 578.113 715.29 566.599C694.057 530.579 691.917 484.855 709.529 449.822C729.939 409.691 766.645 385.513 811.909 382.388C861.454 378.934 910.339 408.868 930.914 454.921C940.79 477.29 943.259 509.527 937.169 533.869ZM644.184 1023.02C630.522 1063.31 600.236 1093.08 560.238 1105.58C542.626 1111.01 510.694 1111.01 492.753 1105.42C411.112 1080.58 379.674 984.201 430.699 914.957C462.796 871.536 524.356 855.253 575.381 876.634C609.947 891.108 638.093 925.154 646.817 962.984C650.109 977.786 648.792 1009.37 644.184 1023.02Z" fill="white"/>
</svg>
